<?xml version="1.0" encoding="utf-8"?>
<!-- Generator: Adobe Illustrator 26.0.2, SVG Export Plug-In . SVG Version: 6.00 Build 0)  -->
<svg version="1.1" id="Calque_1" xmlns="http://www.w3.org/2000/svg" xmlns:xlink="http://www.w3.org/1999/xlink" x="0px" y="0px"
	 viewBox="0 0 533 433.2" style="enable-background:new 0 0 533 433.2;" xml:space="preserve">
<style type="text/css">
	.st0{fill:#636CFF;}
	.st1{fill:none;}
	.st2{fill:#9F7BFF;}
	.st3{fill:#6940FF;}
</style>
<g>
	<path class="st0" d="M93.7,321.1v110.1H66.8v-42.8H26.9v42.8H0V321.1h26.9v41.8h39.9v-41.8H93.7z"/>
	<path class="st0" d="M181.1,410.7h-41.7l-6.5,20.4h-28.3l39.6-110.1h31.8l39.6,110.1h-28.1L181.1,410.7z M174.7,390.3l-14.5-45.8
		l-14.5,45.8H174.7z"/>
	<path class="st0" d="M296.1,397l22.5,14.8c-9.9,13.2-25.6,21.4-44.5,21.4c-32.5,0-56-24.4-56-57.1c0-32.5,23.4-56.9,56-56.9
		c18.9,0,34.6,8.2,44.5,21.2l-22.5,14.8c-4.7-6-12.1-10.1-22-10.1c-19.2,0-28.9,15.4-28.9,31s9.8,31.1,28.9,31.1
		C284,407.3,291.4,403.2,296.1,397z"/>
	<path class="st0" d="M392.2,431.2l-34.9-50.3v50.3h-26.9V321.1h26.9V370l33.7-48.9h30l-38,53.3l40.7,56.8H392.2z"/>
	<path class="st0" d="M493.4,389.8v41.4h-27v-41.4l-39.6-68.7h28.9l24.2,46.9l24.2-46.9H533L493.4,389.8z"/>
</g>
<g>
	<polygon class="st1" points="318.5,147.3 267.1,119.7 318.5,89.9 267.1,59.6 267.1,58.9 106.1,149.9 158.2,178.7 214,150 
		267.1,178.7 214,208.5 264.9,237.6 427,146.6 372.9,117.5 	"/>
	<polygon class="st2" points="264.9,237.6 214,208.5 267.1,178.7 214,150 158.2,178.7 106.1,149.9 54.2,179.2 267.1,295.1 
		213.9,266.2 	"/>
	<polygon class="st2" points="267.1,58.9 267.1,59.6 318.5,89.9 267.1,119.7 318.5,147.3 372.9,117.5 427,146.6 478.8,117.5 
		267.1,0 319.7,29.2 	"/>
	<polygon class="st0" points="267.1,58.9 267.1,0 54.2,121.3 106.1,149.9 	"/>
	<polygon class="st3" points="54.2,121.3 54.2,179.2 106.1,149.9 	"/>
	<polygon class="st3" points="319.7,29.2 267.1,0 267.1,58.9 	"/>
	<polygon class="st0" points="264.9,237.6 267.1,238.8 267.1,295.1 478.8,174.4 427,146.6 	"/>
	<polygon class="st3" points="264.9,237.6 213.9,266.2 267.1,295.1 267.1,238.8 	"/>
	<polygon class="st3" points="427,146.6 478.8,174.4 478.8,117.5 	"/>
</g>
</svg>
