<?xml version="1.0" encoding="utf-8"?>
<!-- Generator: Adobe Illustrator 26.0.2, SVG Export Plug-In . SVG Version: 6.00 Build 0)  -->
<svg version="1.1" id="Calque_1" xmlns="http://www.w3.org/2000/svg" xmlns:xlink="http://www.w3.org/1999/xlink" x="0px" y="0px"
	 viewBox="0 0 1080 1080" style="enable-background:new 0 0 1080 1080;" xml:space="preserve">
<style type="text/css">
	.st0{fill:#636CFF;}
	.st1{fill:none;}
	.st2{fill:#9F7BFF;}
	.st3{fill:#6940FF;}
</style>
<g>
	<path class="st0" d="M367.2,644.48v110.08h-26.89v-42.77h-39.94v42.77h-26.89V644.48h26.89v41.83h39.94v-41.83H367.2z"/>
	<path class="st0" d="M454.62,734.12h-41.67l-6.45,20.44h-28.3l39.63-110.08h31.76l39.63,110.08h-28.15L454.62,734.12z
		 M448.17,713.67l-14.47-45.76l-14.47,45.76H448.17z"/>
	<path class="st0" d="M569.56,720.44l22.49,14.78c-9.91,13.21-25.63,21.39-44.5,21.39c-32.55,0-55.98-24.37-55.98-57.08
		c0-32.55,23.43-56.92,55.98-56.92c18.87,0,34.59,8.18,44.5,21.23l-22.49,14.78c-4.72-5.98-12.11-10.06-22.01-10.06
		c-19.18,0-28.93,15.41-28.93,30.98c0,15.57,9.75,31.13,28.93,31.13C557.45,730.66,564.84,726.57,569.56,720.44z"/>
	<path class="st0" d="M665.63,754.56l-34.91-50.32v50.32h-26.89V644.48h26.89v48.9l33.65-48.9h30.03l-38.05,53.31l40.73,56.77
		H665.63z"/>
	<path class="st0" d="M766.9,713.2v41.36h-27.05V713.2l-39.63-68.72h28.93l24.22,46.86l24.22-46.86h28.93L766.9,713.2z"/>
</g>
<g>
	<polygon class="st1" points="591.99,470.69 540.54,443.07 591.99,413.29 540.54,382.97 540.54,382.34 379.58,473.33 431.69,502.1 
		487.47,473.4 540.54,502.1 487.47,531.89 538.35,560.96 700.51,469.96 646.41,440.91 	"/>
	<polygon class="st2" points="538.35,560.96 487.47,531.89 540.54,502.1 487.47,473.4 431.69,502.1 379.58,473.33 327.72,502.64 
		540.54,618.53 487.36,589.57 	"/>
	<polygon class="st2" points="540.54,382.34 540.54,382.97 591.99,413.29 540.54,443.07 591.99,470.69 646.41,440.91 700.51,469.96 
		752.28,440.91 540.54,323.4 593.15,352.6 	"/>
	<polygon class="st0" points="540.54,382.34 540.54,323.4 327.72,444.7 379.58,473.33 	"/>
	<polygon class="st3" points="327.72,444.7 327.72,502.64 379.58,473.33 	"/>
	<polygon class="st3" points="593.15,352.6 540.54,323.4 540.54,382.34 	"/>
	<polygon class="st0" points="538.35,560.96 540.54,562.21 540.54,618.53 752.28,497.77 700.51,469.96 	"/>
	<polygon class="st3" points="538.35,560.96 487.36,589.57 540.54,618.53 540.54,562.21 	"/>
	<polygon class="st3" points="700.51,469.96 752.28,497.77 752.28,440.91 	"/>
</g>
</svg>
